# xmcd
#
# Track frame offsets:
# 150
# 28688
# 71153
# 104314
# 158079
# 189365
#
# Disc length: 3466 seconds
#
#
# Revision: 3
# Processed by: cddbd v1.5.2PL0 Copyright (c) Steve Scherf et al.
# Submitted via: FreeRIP 2.945 
#
DISCID=480d8806
DTITLE=Railroad Earth - Elko [CD1]
DYEAR=2005
DGENRE=Bluegrass
TTITLE0=Long Way To Go
TTITLE1=Colorado
TTITLE2=Bird In A House
TTITLE3=The Hunting Song
TTITLE4=Old Man and the Land
TTITLE5=Head
EXTD=
EXTT0=
EXTT1=
EXTT2=
EXTT3=
EXTT4=
EXTT5=
PLAYORDER=
